<svg xmlns="http://www.w3.org/2000/svg" xmlns:xlink="http://www.w3.org/1999/xlink" xmlns:serif="http://www.serif.com/" viewBox="0 0 32 40" version="1.1" xml:space="preserve" style="" x="0px" y="0px" fill-rule="evenodd" clip-rule="evenodd" stroke-linejoin="round" stroke-miterlimit="2" fill="#888"><g transform="matrix(1,0,0,1,0,-288)"><path d="M10,313L22.006,313C26.945,312.969 31,308.946 31,304C31,299.033 26.967,295 22,295C22,295 10,295 10,295C5.033,295 1,299.033 1,304C1,308.967 5.033,313 10,313ZM10,311C6.137,311 3,307.863 3,304C3,300.137 6.137,297 10,297L22,297C25.863,297 29,300.137 29,304C29,307.849 25.839,310.974 21.996,311L10,311ZM9,303L7,303C6.448,303 6,303.448 6,304C6,304.552 6.448,305 7,305L9,305L9,307C9,307.552 9.448,308 10,308C10.552,308 11,307.552 11,307L11,305L13,305C13.552,305 14,304.552 14,304C14,303.448 13.552,303 13,303L11,303L11,301C11,300.448 10.552,300 10,300C9.448,300 9,300.448 9,301L9,303ZM20,304C18.896,304 18,304.896 18,306C18,307.104 18.896,308 20,308C21.104,308 22,307.104 22,306C22,304.896 21.104,304 20,304ZM24,300C22.896,300 22,300.896 22,302C22,303.104 22.896,304 24,304C25.104,304 26,303.104 26,302C26,300.896 25.104,300 24,300Z"/></g></svg>